STARTFONT 2.1
COMMENT Exported by Fony v1.4.7
FONT u8g2_squeezed_bold_6
SIZE 7 96 96
FONTBOUNDINGBOX 10 6 0 -1
STARTPROPERTIES 6
COPYRIGHT "public domain"
RESOLUTION_X 96
RESOLUTION_Y 96
FONT_ASCENT 6
FONT_DESCENT 1
DEFAULT_CHAR 0
ENDPROPERTIES
CHARS 95
STARTCHAR 032
ENCODING 32
SWIDTH 216 0
DWIDTH 3 0
BBX 0 0 0 0
BITMAP
ENDCHAR
STARTCHAR 033
ENCODING 33
SWIDTH 216 0
DWIDTH 3 0
BBX 2 6 0 0
BITMAP
C0
C0
C0
C0
00
C0
ENDCHAR
STARTCHAR 034
ENCODING 34
SWIDTH 432 0
DWIDTH 6 0
BBX 5 2 0 4
BITMAP
D8
D8
ENDCHAR
STARTCHAR 035
ENCODING 35
SWIDTH 576 0
DWIDTH 8 0
BBX 7 5 0 0
BITMAP
6C
FE
6C
FE
6C
ENDCHAR
STARTCHAR 036
ENCODING 36
SWIDTH 504 0
DWIDTH 7 0
BBX 6 7 0 -1
BITMAP
30
7C
F0
78
3C
F8
30
ENDCHAR
STARTCHAR 037
ENCODING 37
SWIDTH 504 0
DWIDTH 7 0
BBX 6 6 0 0
BITMAP
CC
18
30
30
60
CC
ENDCHAR
STARTCHAR 038
ENCODING 38
SWIDTH 504 0
DWIDTH 7 0
BBX 6 6 0 0
BITMAP
70
D8
70
DC
D8
7C
ENDCHAR
STARTCHAR 039
ENCODING 39
SWIDTH 216 0
DWIDTH 3 0
BBX 2 2 0 4
BITMAP
C0
C0
ENDCHAR
STARTCHAR 040
ENCODING 40
SWIDTH 288 0
DWIDTH 4 0
BBX 3 6 0 0
BITMAP
60
C0
C0
C0
C0
60
ENDCHAR
STARTCHAR 041
ENCODING 41
SWIDTH 288 0
DWIDTH 4 0
BBX 3 6 0 0
BITMAP
C0
60
60
60
60
C0
ENDCHAR
STARTCHAR 042
ENCODING 42
SWIDTH 432 0
DWIDTH 6 0
BBX 5 5 0 1
BITMAP
D8
70
F8
70
D8
ENDCHAR
STARTCHAR 043
ENCODING 43
SWIDTH 360 0
DWIDTH 5 0
BBX 4 3 0 2
BITMAP
60
F0
60
ENDCHAR
STARTCHAR 044
ENCODING 44
SWIDTH 216 0
DWIDTH 3 0
BBX 2 2 0 -1
BITMAP
C0
C0
ENDCHAR
STARTCHAR 045
ENCODING 45
SWIDTH 288 0
DWIDTH 4 0
BBX 3 1 0 3
BITMAP
E0
ENDCHAR
STARTCHAR 046
ENCODING 46
SWIDTH 216 0
DWIDTH 3 0
BBX 2 2 0 0
BITMAP
C0
C0
ENDCHAR
STARTCHAR 047
ENCODING 47
SWIDTH 360 0
DWIDTH 5 0
BBX 4 6 0 0
BITMAP
30
30
60
60
C0
C0
ENDCHAR
STARTCHAR 048
ENCODING 48
SWIDTH 360 0
DWIDTH 5 0
BBX 5 6 0 0
BITMAP
70
D8
D8
D8
D8
70
ENDCHAR
STARTCHAR 049
ENCODING 49
SWIDTH 288 0
DWIDTH 4 0
BBX 3 6 0 0
BITMAP
60
E0
60
60
60
60
ENDCHAR
STARTCHAR 050
ENCODING 50
SWIDTH 360 0
DWIDTH 5 0
BBX 4 6 0 0
BITMAP
E0
30
30
60
C0
F0
ENDCHAR
STARTCHAR 051
ENCODING 51
SWIDTH 360 0
DWIDTH 5 0
BBX 4 6 0 0
BITMAP
E0
30
E0
30
30
E0
ENDCHAR
STARTCHAR 052
ENCODING 52
SWIDTH 432 0
DWIDTH 6 0
BBX 5 6 0 0
BITMAP
D8
D8
F8
18
18
18
ENDCHAR
STARTCHAR 053
ENCODING 53
SWIDTH 360 0
DWIDTH 5 0
BBX 4 6 0 0
BITMAP
F0
C0
E0
30
30
E0
ENDCHAR
STARTCHAR 054
ENCODING 54
SWIDTH 432 0
DWIDTH 6 0
BBX 5 6 0 0
BITMAP
70
C0
F0
D8
D8
70
ENDCHAR
STARTCHAR 055
ENCODING 55
SWIDTH 360 0
DWIDTH 5 0
BBX 4 6 0 0
BITMAP
F0
30
60
60
60
60
ENDCHAR
STARTCHAR 056
ENCODING 56
SWIDTH 432 0
DWIDTH 6 0
BBX 5 6 0 0
BITMAP
70
D8
70
D8
D8
70
ENDCHAR
STARTCHAR 057
ENCODING 57
SWIDTH 432 0
DWIDTH 6 0
BBX 5 6 0 0
BITMAP
70
D8
78
18
D8
70
ENDCHAR
STARTCHAR 058
ENCODING 58
SWIDTH 216 0
DWIDTH 3 0
BBX 2 3 0 1
BITMAP
C0
00
C0
ENDCHAR
STARTCHAR 059
ENCODING 59
SWIDTH 216 0
DWIDTH 3 0
BBX 2 5 0 -1
BITMAP
C0
00
00
C0
C0
ENDCHAR
STARTCHAR 060
ENCODING 60
SWIDTH 288 0
DWIDTH 4 0
BBX 3 3 0 2
BITMAP
60
C0
60
ENDCHAR
STARTCHAR 061
ENCODING 61
SWIDTH 288 0
DWIDTH 4 0
BBX 3 3 0 2
BITMAP
E0
00
E0
ENDCHAR
STARTCHAR 062
ENCODING 62
SWIDTH 288 0
DWIDTH 4 0
BBX 3 3 0 2
BITMAP
C0
60
C0
ENDCHAR
STARTCHAR 063
ENCODING 63
SWIDTH 360 0
DWIDTH 5 0
BBX 4 6 0 0
BITMAP
E0
30
60
60
00
60
ENDCHAR
STARTCHAR 064
ENCODING 64
SWIDTH 504 0
DWIDTH 7 0
BBX 6 6 0 0
BITMAP
78
CC
DC
DC
C0
78
ENDCHAR
STARTCHAR 065
ENCODING 65
SWIDTH 432 0
DWIDTH 6 0
BBX 5 6 0 0
BITMAP
70
D8
F8
D8
D8
D8
ENDCHAR
STARTCHAR 066
ENCODING 66
SWIDTH 432 0
DWIDTH 6 0
BBX 5 6 0 0
BITMAP
F0
D8
F0
D8
D8
F0
ENDCHAR
STARTCHAR 067
ENCODING 67
SWIDTH 360 0
DWIDTH 5 0
BBX 4 6 0 0
BITMAP
70
C0
C0
C0
C0
70
ENDCHAR
STARTCHAR 068
ENCODING 68
SWIDTH 432 0
DWIDTH 6 0
BBX 5 6 0 0
BITMAP
F0
D8
D8
D8
D8
F0
ENDCHAR
STARTCHAR 069
ENCODING 69
SWIDTH 288 0
DWIDTH 4 0
BBX 3 6 0 0
BITMAP
E0
C0
E0
C0
C0
E0
ENDCHAR
STARTCHAR 070
ENCODING 70
SWIDTH 288 0
DWIDTH 4 0
BBX 3 6 0 0
BITMAP
E0
C0
E0
C0
C0
C0
ENDCHAR
STARTCHAR 071
ENCODING 71
SWIDTH 432 0
DWIDTH 6 0
BBX 5 6 0 0
BITMAP
70
C0
F8
D8
D8
70
ENDCHAR
STARTCHAR 072
ENCODING 72
SWIDTH 432 0
DWIDTH 6 0
BBX 5 6 0 0
BITMAP
D8
D8
F8
D8
D8
D8
ENDCHAR
STARTCHAR 073
ENCODING 73
SWIDTH 216 0
DWIDTH 3 0
BBX 2 6 0 0
BITMAP
C0
C0
C0
C0
C0
C0
ENDCHAR
STARTCHAR 074
ENCODING 74
SWIDTH 288 0
DWIDTH 4 0
BBX 3 6 0 0
BITMAP
60
60
60
60
60
E0
ENDCHAR
STARTCHAR 075
ENCODING 75
SWIDTH 432 0
DWIDTH 6 0
BBX 5 6 0 0
BITMAP
D8
F0
E0
F0
D8
D8
ENDCHAR
STARTCHAR 076
ENCODING 76
SWIDTH 288 0
DWIDTH 4 0
BBX 3 6 0 0
BITMAP
C0
C0
C0
C0
C0
E0
ENDCHAR
STARTCHAR 077
ENCODING 77
SWIDTH 576 0
DWIDTH 8 0
BBX 7 6 0 0
BITMAP
C6
EE
FE
D6
C6
C6
ENDCHAR
STARTCHAR 078
ENCODING 78
SWIDTH 504 0
DWIDTH 7 0
BBX 6 6 0 0
BITMAP
CC
EC
FC
DC
CC
CC
ENDCHAR
STARTCHAR 079
ENCODING 79
SWIDTH 432 0
DWIDTH 6 0
BBX 5 6 0 0
BITMAP
70
D8
D8
D8
D8
70
ENDCHAR
STARTCHAR 080
ENCODING 80
SWIDTH 432 0
DWIDTH 6 0
BBX 5 6 0 0
BITMAP
F0
D8
F0
C0
C0
C0
ENDCHAR
STARTCHAR 081
ENCODING 81
SWIDTH 504 0
DWIDTH 7 0
BBX 6 6 0 0
BITMAP
70
D8
D8
D8
D8
7C
ENDCHAR
STARTCHAR 082
ENCODING 82
SWIDTH 432 0
DWIDTH 6 0
BBX 5 6 0 0
BITMAP
F0
D8
F0
D8
D8
D8
ENDCHAR
STARTCHAR 083
ENCODING 83
SWIDTH 288 0
DWIDTH 4 0
BBX 3 6 0 0
BITMAP
60
C0
C0
60
60
C0
ENDCHAR
STARTCHAR 084
ENCODING 84
SWIDTH 360 0
DWIDTH 5 0
BBX 4 6 0 0
BITMAP
F0
60
60
60
60
60
ENDCHAR
STARTCHAR 085
ENCODING 85
SWIDTH 432 0
DWIDTH 6 0
BBX 5 6 0 0
BITMAP
D8
D8
D8
D8
D8
F8
ENDCHAR
STARTCHAR 086
ENCODING 86
SWIDTH 504 0
DWIDTH 7 0
BBX 6 6 0 0
BITMAP
CC
CC
CC
CC
78
30
ENDCHAR
STARTCHAR 087
ENCODING 87
SWIDTH 648 0
DWIDTH 9 0
BBX 8 6 0 0
BITMAP
C3
C3
C3
DB
FF
66
ENDCHAR
STARTCHAR 088
ENCODING 88
SWIDTH 432 0
DWIDTH 6 0
BBX 5 6 0 0
BITMAP
D8
D8
70
70
D8
D8
ENDCHAR
STARTCHAR 089
ENCODING 89
SWIDTH 504 0
DWIDTH 7 0
BBX 6 6 0 0
BITMAP
CC
CC
78
30
30
30
ENDCHAR
STARTCHAR 090
ENCODING 90
SWIDTH 360 0
DWIDTH 5 0
BBX 4 6 0 0
BITMAP
F0
30
70
E0
C0
F0
ENDCHAR
STARTCHAR 091
ENCODING 91
SWIDTH 288 0
DWIDTH 4 0
BBX 3 6 0 0
BITMAP
E0
C0
C0
C0
C0
E0
ENDCHAR
STARTCHAR 092
ENCODING 92
SWIDTH 360 0
DWIDTH 5 0
BBX 4 6 0 0
BITMAP
C0
C0
60
60
30
30
ENDCHAR
STARTCHAR 093
ENCODING 93
SWIDTH 288 0
DWIDTH 4 0
BBX 3 6 0 0
BITMAP
E0
60
60
60
60
E0
ENDCHAR
STARTCHAR 094
ENCODING 94
SWIDTH 360 0
DWIDTH 5 0
BBX 4 2 0 4
BITMAP
60
F0
ENDCHAR
STARTCHAR 095
ENCODING 95
SWIDTH 288 0
DWIDTH 4 0
BBX 3 1 0 0
BITMAP
E0
ENDCHAR
STARTCHAR 096
ENCODING 96
SWIDTH 288 0
DWIDTH 4 0
BBX 3 2 0 4
BITMAP
C0
60
ENDCHAR
STARTCHAR 097
ENCODING 97
SWIDTH 432 0
DWIDTH 6 0
BBX 5 4 0 0
BITMAP
78
D8
D8
78
ENDCHAR
STARTCHAR 098
ENCODING 98
SWIDTH 432 0
DWIDTH 6 0
BBX 5 6 0 0
BITMAP
C0
C0
F0
D8
D8
F0
ENDCHAR
STARTCHAR 099
ENCODING 99
SWIDTH 360 0
DWIDTH 5 0
BBX 4 4 0 0
BITMAP
70
C0
C0
70
ENDCHAR
STARTCHAR 100
ENCODING 100
SWIDTH 432 0
DWIDTH 6 0
BBX 5 6 0 0
BITMAP
18
18
78
D8
D8
78
ENDCHAR
STARTCHAR 101
ENCODING 101
SWIDTH 432 0
DWIDTH 6 0
BBX 5 4 0 0
BITMAP
70
D8
E0
70
ENDCHAR
STARTCHAR 102
ENCODING 102
SWIDTH 288 0
DWIDTH 4 0
BBX 3 6 0 0
BITMAP
60
C0
E0
C0
C0
C0
ENDCHAR
STARTCHAR 103
ENCODING 103
SWIDTH 432 0
DWIDTH 6 0
BBX 5 5 0 -1
BITMAP
78
D8
78
38
F0
ENDCHAR
STARTCHAR 104
ENCODING 104
SWIDTH 432 0
DWIDTH 6 0
BBX 5 6 0 0
BITMAP
C0
C0
F0
D8
D8
D8
ENDCHAR
STARTCHAR 105
ENCODING 105
SWIDTH 216 0
DWIDTH 3 0
BBX 2 6 0 0
BITMAP
C0
00
C0
C0
C0
C0
ENDCHAR
STARTCHAR 106
ENCODING 106
SWIDTH 288 0
DWIDTH 4 0
BBX 3 7 0 -1
BITMAP
60
00
60
60
60
60
C0
ENDCHAR
STARTCHAR 107
ENCODING 107
SWIDTH 432 0
DWIDTH 6 0
BBX 5 6 0 0
BITMAP
C0
C0
D8
F0
D8
D8
ENDCHAR
STARTCHAR 108
ENCODING 108
SWIDTH 216 0
DWIDTH 3 0
BBX 2 6 0 0
BITMAP
C0
C0
C0
C0
C0
C0
ENDCHAR
STARTCHAR 109
ENCODING 109
SWIDTH 648 0
DWIDTH 9 0
BBX 8 4 0 0
BITMAP
FE
DB
DB
DB
ENDCHAR
STARTCHAR 110
ENCODING 110
SWIDTH 432 0
DWIDTH 6 0
BBX 5 4 0 0
BITMAP
F0
D8
D8
D8
ENDCHAR
STARTCHAR 111
ENCODING 111
SWIDTH 432 0
DWIDTH 6 0
BBX 5 4 0 0
BITMAP
70
D8
D8
70
ENDCHAR
STARTCHAR 112
ENCODING 112
SWIDTH 432 0
DWIDTH 6 0
BBX 5 5 0 -1
BITMAP
F0
D8
D8
F0
C0
ENDCHAR
STARTCHAR 113
ENCODING 113
SWIDTH 432 0
DWIDTH 6 0
BBX 5 5 0 -1
BITMAP
78
D8
D8
78
18
ENDCHAR
STARTCHAR 114
ENCODING 114
SWIDTH 432 0
DWIDTH 6 0
BBX 5 4 0 0
BITMAP
D8
F0
C0
C0
ENDCHAR
STARTCHAR 115
ENCODING 115
SWIDTH 288 0
DWIDTH 4 0
BBX 3 4 0 0
BITMAP
60
C0
60
C0
ENDCHAR
STARTCHAR 116
ENCODING 116
SWIDTH 288 0
DWIDTH 4 0
BBX 3 6 0 0
BITMAP
C0
C0
E0
C0
C0
60
ENDCHAR
STARTCHAR 117
ENCODING 117
SWIDTH 432 0
DWIDTH 6 0
BBX 5 4 0 0
BITMAP
D8
D8
D8
F8
ENDCHAR
STARTCHAR 118
ENCODING 118
SWIDTH 432 0
DWIDTH 6 0
BBX 5 4 0 0
BITMAP
D8
D8
D8
70
ENDCHAR
STARTCHAR 119
ENCODING 119
SWIDTH 648 0
DWIDTH 9 0
BBX 8 4 0 0
BITMAP
C3
DB
DB
7E
ENDCHAR
STARTCHAR 120
ENCODING 120
SWIDTH 432 0
DWIDTH 6 0
BBX 5 4 0 0
BITMAP
D8
70
70
D8
ENDCHAR
STARTCHAR 121
ENCODING 121
SWIDTH 432 0
DWIDTH 6 0
BBX 5 5 0 -1
BITMAP
D8
D8
78
38
70
ENDCHAR
STARTCHAR 122
ENCODING 122
SWIDTH 288 0
DWIDTH 4 0
BBX 3 4 0 0
BITMAP
E0
60
C0
E0
ENDCHAR
STARTCHAR 123
ENCODING 123
SWIDTH 360 0
DWIDTH 5 0
BBX 4 6 0 0
BITMAP
30
60
E0
60
60
30
ENDCHAR
STARTCHAR 124
ENCODING 124
SWIDTH 216 0
DWIDTH 3 0
BBX 2 6 0 0
BITMAP
C0
C0
C0
C0
C0
C0
ENDCHAR
STARTCHAR 125
ENCODING 125
SWIDTH 360 0
DWIDTH 5 0
BBX 4 6 0 0
BITMAP
C0
60
70
60
60
C0
ENDCHAR
STARTCHAR 126
ENCODING 126
SWIDTH 504 0
DWIDTH 7 0
BBX 6 2 0 4
BITMAP
6C
D8
ENDCHAR
ENDFONT
